# MagicaVoxel @ Ephtracy

# group
o 

# material
mtllib Glider.mtl
usemtl palette

# normals
vn -1 0 0
vn 1 0 0
vn 0 0 1
vn 0 0 -1
vn 0 -1 0
vn 0 1 0

# texcoords
vt 0.560547 0.5
vt 0.826172 0.5
vt 0.958984 0.5

# verts
v -1 1.9 -0.2
v -1 1.9 -0.6
v -1 2 -0.2
v -1 2 -0.6
v -0.9 1.9 0.1
v -0.9 1.9 -0.2
v -0.9 2 0.1
v -0.9 2 -0.2
v -0.8 1.9 0.3
v -0.8 1.9 0.1
v -0.8 2 0.3
v -0.8 2 0.1
v -0.6 1.9 0.5
v -0.6 1.9 0.3
v -0.6 2 0.5
v -0.6 2 0.3
v -0.5 1.9 0.6
v -0.5 1.9 0.5
v -0.5 2 0.6
v -0.5 2 0.5
v -0.4 1.9 0.7
v -0.4 1.9 0.6
v -0.4 2 0.7
v -0.4 2 0.6
v -0.2 1.9 0.8
v -0.2 1.9 0.7
v -0.2 2 0.8
v -0.2 2 0.7
v -0.1 1.9 0.9
v -0.1 1.9 0.8
v -0.1 2 0.9
v -0.1 2 0.8
v 0.1 1.9 0.9
v 0.1 1.9 0.8
v 0.1 2 0.9
v 0.1 2 0.8
v 0.2 1.9 0.8
v 0.2 1.9 0.7
v 0.2 2 0.8
v 0.2 2 0.7
v 0.4 1.9 0.7
v 0.4 1.9 0.6
v 0.4 2 0.7
v 0.4 2 0.6
v 0.5 1.9 0.6
v 0.5 1.9 0.5
v 0.5 2 0.6
v 0.5 2 0.5
v 0.6 1.9 0.5
v 0.6 1.9 0.3
v 0.6 2 0.5
v 0.6 2 0.3
v 0.8 1.9 0.3
v 0.8 1.9 0.1
v 0.8 2 0.3
v 0.8 2 0.1
v 0.9 1.9 0.1
v 0.9 1.9 -0.2
v 0.9 2 0.1
v 0.9 2 -0.2
v 1 1.9 -0.2
v 1 1.9 -0.6
v 1 2 -0.2
v 1 2 -0.6
v -0.1 1.9 0.9
v -0.1 2 0.9
v 0.1 1.9 0.9
v 0.1 2 0.9
v -0.2 1.9 0.8
v -0.2 2 0.8
v -0.1 1.9 0.8
v -0.1 2 0.8
v 0.1 1.9 0.8
v 0.1 2 0.8
v 0.2 1.9 0.8
v 0.2 2 0.8
v -0.4 1.9 0.7
v -0.4 2 0.7
v -0.2 1.9 0.7
v -0.2 2 0.7
v 0.2 1.9 0.7
v 0.2 2 0.7
v 0.4 1.9 0.7
v 0.4 2 0.7
v -0.5 1.9 0.6
v -0.5 2 0.6
v -0.4 1.9 0.6
v -0.4 2 0.6
v 0.4 1.9 0.6
v 0.4 2 0.6
v 0.5 1.9 0.6
v 0.5 2 0.6
v -0.6 1.9 0.5
v -0.6 2 0.5
v -0.5 1.9 0.5
v -0.5 2 0.5
v 0.5 1.9 0.5
v 0.5 2 0.5
v 0.6 1.9 0.5
v 0.6 2 0.5
v -0.8 1.9 0.3
v -0.8 2 0.3
v -0.6 1.9 0.3
v -0.6 2 0.3
v 0.6 1.9 0.3
v 0.6 2 0.3
v 0.8 1.9 0.3
v 0.8 2 0.3
v -0.9 1.9 0.1
v -0.9 2 0.1
v -0.8 1.9 0.1
v -0.8 2 0.1
v 0.8 1.9 0.1
v 0.8 2 0.1
v 0.9 1.9 0.1
v 0.9 2 0.1
v -1 1.9 -0.2
v -1 2 -0.2
v -0.9 1.9 -0.2
v -0.9 2 -0.2
v 0.9 1.9 -0.2
v 0.9 2 -0.2
v 1 1.9 -0.2
v 1 2 -0.2
v -1 1.9 -0.6
v -1 2 -0.6
v 1 1.9 -0.6
v 1 2 -0.6
v -0.1 1.9 0.9
v 0.1 1.9 0.9
v -0.2 1.9 0.8
v -0.1 1.9 0.8
v 0.1 1.9 0.8
v 0.2 1.9 0.8
v -0.4 1.9 0.7
v -0.2 1.9 0.7
v -0.1 1.9 0.7
v 0.1 1.9 0.7
v 0.2 1.9 0.7
v 0.4 1.9 0.7
v -0.5 1.9 0.6
v -0.4 1.9 0.6
v -0.3 1.9 0.6
v -0.1 1.9 0.6
v 0.1 1.9 0.6
v 0.3 1.9 0.6
v 0.4 1.9 0.6
v 0.5 1.9 0.6
v -0.6 1.9 0.5
v -0.5 1.9 0.5
v -0.4 1.9 0.5
v -0.3 1.9 0.5
v 0.3 1.9 0.5
v 0.4 1.9 0.5
v 0.5 1.9 0.5
v 0.6 1.9 0.5
v -0.5 1.9 0.4
v -0.4 1.9 0.4
v 0.4 1.9 0.4
v 0.5 1.9 0.4
v -0.8 1.9 0.3
v -0.6 1.9 0.3
v 0.6 1.9 0.3
v 0.8 1.9 0.3
v -0.7 1.9 0.2
v -0.6 1.9 0.2
v -0.5 1.9 0.2
v 0.5 1.9 0.2
v 0.6 1.9 0.2
v 0.7 1.9 0.2
v -0.9 1.9 0.1
v -0.8 1.9 0.1
v 0.8 1.9 0.1
v 0.9 1.9 0.1
v -0.8 1.9 0
v -0.7 1.9 0
v 0.7 1.9 0
v 0.8 1.9 0
v -1 1.9 -0.2
v -0.9 1.9 -0.2
v 0.9 1.9 -0.2
v 1 1.9 -0.2
v -0.9 1.9 -0.3
v -0.8 1.9 -0.3
v 0.8 1.9 -0.3
v 0.9 1.9 -0.3
v -0.9 1.9 -0.4
v -0.7 1.9 -0.4
v -0.6 1.9 -0.4
v -0.4 1.9 -0.4
v -0.3 1.9 -0.4
v -0.1 1.9 -0.4
v 0.1 1.9 -0.4
v 0.3 1.9 -0.4
v 0.4 1.9 -0.4
v 0.6 1.9 -0.4
v 0.7 1.9 -0.4
v 0.9 1.9 -0.4
v -1 1.9 -0.6
v 1 1.9 -0.6
v -0.1 2 0.9
v 0.1 2 0.9
v -0.2 2 0.8
v -0.1 2 0.8
v 0.1 2 0.8
v 0.2 2 0.8
v -0.4 2 0.7
v -0.2 2 0.7
v -0.1 2 0.7
v 0.1 2 0.7
v 0.2 2 0.7
v 0.4 2 0.7
v -0.5 2 0.6
v -0.4 2 0.6
v -0.3 2 0.6
v -0.1 2 0.6
v 0.1 2 0.6
v 0.3 2 0.6
v 0.4 2 0.6
v 0.5 2 0.6
v -0.6 2 0.5
v -0.5 2 0.5
v -0.4 2 0.5
v -0.3 2 0.5
v 0.3 2 0.5
v 0.4 2 0.5
v 0.5 2 0.5
v 0.6 2 0.5
v -0.5 2 0.4
v -0.4 2 0.4
v 0.4 2 0.4
v 0.5 2 0.4
v -0.8 2 0.3
v -0.6 2 0.3
v 0.6 2 0.3
v 0.8 2 0.3
v -0.7 2 0.2
v -0.6 2 0.2
v -0.5 2 0.2
v 0.5 2 0.2
v 0.6 2 0.2
v 0.7 2 0.2
v -0.9 2 0.1
v -0.8 2 0.1
v 0.8 2 0.1
v 0.9 2 0.1
v -0.8 2 0
v -0.7 2 0
v 0.7 2 0
v 0.8 2 0
v -1 2 -0.2
v -0.9 2 -0.2
v 0.9 2 -0.2
v 1 2 -0.2
v -0.9 2 -0.3
v -0.8 2 -0.3
v 0.8 2 -0.3
v 0.9 2 -0.3
v -0.9 2 -0.4
v -0.7 2 -0.4
v -0.6 2 -0.4
v -0.4 2 -0.4
v -0.3 2 -0.4
v -0.1 2 -0.4
v 0.1 2 -0.4
v 0.3 2 -0.4
v 0.4 2 -0.4
v 0.6 2 -0.4
v 0.7 2 -0.4
v 0.9 2 -0.4
v -1 2 -0.6
v 1 2 -0.6

# faces
f 3/1/1 2/1/1 1/1/1
f 4/1/1 2/1/1 3/1/1
f 7/1/1 6/1/1 5/1/1
f 8/1/1 6/1/1 7/1/1
f 11/1/1 10/1/1 9/1/1
f 12/1/1 10/1/1 11/1/1
f 15/1/1 14/1/1 13/1/1
f 16/1/1 14/1/1 15/1/1
f 19/1/1 18/1/1 17/1/1
f 20/1/1 18/1/1 19/1/1
f 23/1/1 22/1/1 21/1/1
f 24/1/1 22/1/1 23/1/1
f 27/1/1 26/1/1 25/1/1
f 28/1/1 26/1/1 27/1/1
f 31/1/1 30/1/1 29/1/1
f 32/1/1 30/1/1 31/1/1
f 33/1/2 34/1/2 35/1/2
f 35/1/2 34/1/2 36/1/2
f 37/1/2 38/1/2 39/1/2
f 39/1/2 38/1/2 40/1/2
f 41/1/2 42/1/2 43/1/2
f 43/1/2 42/1/2 44/1/2
f 45/1/2 46/1/2 47/1/2
f 47/1/2 46/1/2 48/1/2
f 49/1/2 50/1/2 51/1/2
f 51/1/2 50/1/2 52/1/2
f 53/1/2 54/1/2 55/1/2
f 55/1/2 54/1/2 56/1/2
f 57/1/2 58/1/2 59/1/2
f 59/1/2 58/1/2 60/1/2
f 61/1/2 62/1/2 63/1/2
f 63/1/2 62/1/2 64/1/2
f 67/1/3 66/1/3 65/1/3
f 68/1/3 66/1/3 67/1/3
f 71/1/3 70/1/3 69/1/3
f 72/1/3 70/1/3 71/1/3
f 75/1/3 74/1/3 73/1/3
f 76/1/3 74/1/3 75/1/3
f 79/1/3 78/1/3 77/1/3
f 80/1/3 78/1/3 79/1/3
f 83/1/3 82/1/3 81/1/3
f 84/1/3 82/1/3 83/1/3
f 87/1/3 86/1/3 85/1/3
f 88/1/3 86/1/3 87/1/3
f 91/1/3 90/1/3 89/1/3
f 92/1/3 90/1/3 91/1/3
f 95/1/3 94/1/3 93/1/3
f 96/1/3 94/1/3 95/1/3
f 99/1/3 98/1/3 97/1/3
f 100/1/3 98/1/3 99/1/3
f 103/1/3 102/1/3 101/1/3
f 104/1/3 102/1/3 103/1/3
f 107/1/3 106/1/3 105/1/3
f 108/1/3 106/1/3 107/1/3
f 111/1/3 110/1/3 109/1/3
f 112/1/3 110/1/3 111/1/3
f 115/1/3 114/1/3 113/1/3
f 116/1/3 114/1/3 115/1/3
f 119/1/3 118/1/3 117/1/3
f 120/1/3 118/1/3 119/1/3
f 123/1/3 122/1/3 121/1/3
f 124/1/3 122/1/3 123/1/3
f 125/1/4 126/1/4 127/1/4
f 127/1/4 126/1/4 128/1/4
f 132/1/5 130/1/5 129/1/5
f 133/1/5 130/1/5 132/1/5
f 136/1/5 132/1/5 131/1/5
f 136/1/5 134/1/5 133/1/5
f 136/1/5 133/1/5 132/1/5
f 137/1/5 134/1/5 136/1/5
f 138/1/5 134/1/5 137/1/5
f 139/1/5 134/1/5 138/1/5
f 142/1/5 136/1/5 135/1/5
f 142/1/5 137/1/5 136/1/5
f 143/1/5 137/1/5 142/1/5
f 144/2/5 138/2/5 137/2/5
f 144/1/5 137/1/5 143/1/5
f 145/1/5 140/1/5 139/1/5
f 145/2/5 138/2/5 144/2/5
f 145/1/5 139/1/5 138/1/5
f 146/1/5 140/1/5 145/1/5
f 147/1/5 140/1/5 146/1/5
f 150/1/5 142/1/5 141/1/5
f 150/1/5 143/1/5 142/1/5
f 151/1/5 143/1/5 150/1/5
f 152/3/5 144/3/5 143/3/5
f 152/1/5 143/1/5 151/1/5
f 153/1/5 148/1/5 147/1/5
f 153/1/5 147/1/5 146/1/5
f 153/3/5 146/3/5 145/3/5
f 154/1/5 148/1/5 153/1/5
f 155/1/5 148/1/5 154/1/5
f 157/1/5 151/1/5 150/1/5
f 157/1/5 150/1/5 149/1/5
f 158/2/5 152/2/5 151/2/5
f 158/1/5 151/1/5 157/1/5
f 159/1/5 156/1/5 155/1/5
f 159/1/5 155/1/5 154/1/5
f 159/2/5 154/2/5 153/2/5
f 160/1/5 156/1/5 159/1/5
f 162/1/5 157/1/5 149/1/5
f 163/1/5 156/1/5 160/1/5
f 165/1/5 162/1/5 161/1/5
f 166/1/5 157/1/5 162/1/5
f 166/1/5 162/1/5 165/1/5
f 167/3/5 158/3/5 157/3/5
f 167/1/5 157/1/5 166/1/5
f 168/1/5 164/1/5 163/1/5
f 168/3/5 160/3/5 159/3/5
f 168/1/5 163/1/5 160/1/5
f 169/1/5 164/1/5 168/1/5
f 170/1/5 164/1/5 169/1/5
f 172/1/5 165/1/5 161/1/5
f 173/1/5 164/1/5 170/1/5
f 175/1/5 172/1/5 171/1/5
f 175/1/5 165/1/5 172/1/5
f 176/2/5 166/2/5 165/2/5
f 176/1/5 165/1/5 175/1/5
f 177/1/5 174/1/5 173/1/5
f 177/2/5 170/2/5 169/2/5
f 177/1/5 173/1/5 170/1/5
f 178/1/5 174/1/5 177/1/5
f 180/1/5 175/1/5 171/1/5
f 181/1/5 174/1/5 178/1/5
f 183/1/5 180/1/5 179/1/5
f 183/1/5 175/1/5 180/1/5
f 184/3/5 176/3/5 175/3/5
f 184/1/5 175/1/5 183/1/5
f 185/1/5 182/1/5 181/1/5
f 185/3/5 178/3/5 177/3/5
f 185/1/5 181/1/5 178/1/5
f 186/1/5 182/1/5 185/1/5
f 187/1/5 183/1/5 179/1/5
f 187/3/5 184/3/5 183/3/5
f 188/3/5 176/3/5 184/3/5
f 188/3/5 184/3/5 187/3/5
f 188/2/5 166/2/5 176/2/5
f 189/3/5 167/3/5 166/3/5
f 189/2/5 166/2/5 188/2/5
f 190/2/5 152/2/5 158/2/5
f 190/3/5 167/3/5 189/3/5
f 190/3/5 158/3/5 167/3/5
f 191/3/5 144/3/5 152/3/5
f 191/2/5 152/2/5 190/2/5
f 192/2/5 145/2/5 144/2/5
f 192/3/5 144/3/5 191/3/5
f 193/3/5 153/3/5 145/3/5
f 193/2/5 145/2/5 192/2/5
f 194/2/5 159/2/5 153/2/5
f 194/3/5 153/3/5 193/3/5
f 195/3/5 168/3/5 159/3/5
f 195/2/5 159/2/5 194/2/5
f 195/3/5 169/3/5 168/3/5
f 196/2/5 177/2/5 169/2/5
f 196/3/5 169/3/5 195/3/5
f 197/3/5 185/3/5 177/3/5
f 197/2/5 177/2/5 196/2/5
f 197/3/5 186/3/5 185/3/5
f 198/1/5 182/1/5 186/1/5
f 198/3/5 186/3/5 197/3/5
f 199/1/5 189/1/5 188/1/5
f 199/1/5 190/1/5 189/1/5
f 199/1/5 198/1/5 197/1/5
f 199/1/5 191/1/5 190/1/5
f 199/1/5 197/1/5 196/1/5
f 199/1/5 195/1/5 194/1/5
f 199/1/5 194/1/5 193/1/5
f 199/1/5 196/1/5 195/1/5
f 199/1/5 187/1/5 179/1/5
f 199/1/5 188/1/5 187/1/5
f 199/1/5 193/1/5 192/1/5
f 199/1/5 192/1/5 191/1/5
f 200/1/5 182/1/5 198/1/5
f 200/1/5 198/1/5 199/1/5
f 201/1/6 202/1/6 204/1/6
f 204/1/6 202/1/6 205/1/6
f 203/1/6 204/1/6 208/1/6
f 205/1/6 206/1/6 208/1/6
f 204/1/6 205/1/6 208/1/6
f 208/1/6 206/1/6 209/1/6
f 209/1/6 206/1/6 210/1/6
f 210/1/6 206/1/6 211/1/6
f 207/1/6 208/1/6 214/1/6
f 208/1/6 209/1/6 214/1/6
f 214/1/6 209/1/6 215/1/6
f 209/2/6 210/2/6 216/2/6
f 215/1/6 209/1/6 216/1/6
f 211/1/6 212/1/6 217/1/6
f 216/2/6 210/2/6 217/2/6
f 210/1/6 211/1/6 217/1/6
f 217/1/6 212/1/6 218/1/6
f 218/1/6 212/1/6 219/1/6
f 213/1/6 214/1/6 222/1/6
f 214/1/6 215/1/6 222/1/6
f 222/1/6 215/1/6 223/1/6
f 215/3/6 216/3/6 224/3/6
f 223/1/6 215/1/6 224/1/6
f 219/1/6 220/1/6 225/1/6
f 218/1/6 219/1/6 225/1/6
f 217/3/6 218/3/6 225/3/6
f 225/1/6 220/1/6 226/1/6
f 226/1/6 220/1/6 227/1/6
f 222/1/6 223/1/6 229/1/6
f 221/1/6 222/1/6 229/1/6
f 223/2/6 224/2/6 230/2/6
f 229/1/6 223/1/6 230/1/6
f 227/1/6 228/1/6 231/1/6
f 226/1/6 227/1/6 231/1/6
f 225/2/6 226/2/6 231/2/6
f 231/1/6 228/1/6 232/1/6
f 221/1/6 229/1/6 234/1/6
f 232/1/6 228/1/6 235/1/6
f 233/1/6 234/1/6 237/1/6
f 234/1/6 229/1/6 238/1/6
f 237/1/6 234/1/6 238/1/6
f 229/3/6 230/3/6 239/3/6
f 238/1/6 229/1/6 239/1/6
f 235/1/6 236/1/6 240/1/6
f 231/3/6 232/3/6 240/3/6
f 232/1/6 235/1/6 240/1/6
f 240/1/6 236/1/6 241/1/6
f 241/1/6 236/1/6 242/1/6
f 233/1/6 237/1/6 244/1/6
f 242/1/6 236/1/6 245/1/6
f 243/1/6 244/1/6 247/1/6
f 244/1/6 237/1/6 247/1/6
f 237/2/6 238/2/6 248/2/6
f 247/1/6 237/1/6 248/1/6
f 245/1/6 246/1/6 249/1/6
f 241/2/6 242/2/6 249/2/6
f 242/1/6 245/1/6 249/1/6
f 249/1/6 246/1/6 250/1/6
f 243/1/6 247/1/6 252/1/6
f 250/1/6 246/1/6 253/1/6
f 251/1/6 252/1/6 255/1/6
f 252/1/6 247/1/6 255/1/6
f 247/3/6 248/3/6 256/3/6
f 255/1/6 247/1/6 256/1/6
f 253/1/6 254/1/6 257/1/6
f 249/3/6 250/3/6 257/3/6
f 250/1/6 253/1/6 257/1/6
f 257/1/6 254/1/6 258/1/6
f 251/1/6 255/1/6 259/1/6
f 255/3/6 256/3/6 259/3/6
f 256/3/6 248/3/6 260/3/6
f 259/3/6 256/3/6 260/3/6
f 248/2/6 238/2/6 260/2/6
f 238/3/6 239/3/6 261/3/6
f 260/2/6 238/2/6 261/2/6
f 230/2/6 224/2/6 262/2/6
f 261/3/6 239/3/6 262/3/6
f 239/3/6 230/3/6 262/3/6
f 224/3/6 216/3/6 263/3/6
f 262/2/6 224/2/6 263/2/6
f 216/2/6 217/2/6 264/2/6
f 263/3/6 216/3/6 264/3/6
f 217/3/6 225/3/6 265/3/6
f 264/2/6 217/2/6 265/2/6
f 225/2/6 231/2/6 266/2/6
f 265/3/6 225/3/6 266/3/6
f 231/3/6 240/3/6 267/3/6
f 266/2/6 231/2/6 267/2/6
f 240/3/6 241/3/6 267/3/6
f 241/2/6 249/2/6 268/2/6
f 267/3/6 241/3/6 268/3/6
f 249/3/6 257/3/6 269/3/6
f 268/2/6 249/2/6 269/2/6
f 257/3/6 258/3/6 269/3/6
f 258/1/6 254/1/6 270/1/6
f 269/3/6 258/3/6 270/3/6
f 260/1/6 261/1/6 271/1/6
f 261/1/6 262/1/6 271/1/6
f 269/1/6 270/1/6 271/1/6
f 262/1/6 263/1/6 271/1/6
f 268/1/6 269/1/6 271/1/6
f 266/1/6 267/1/6 271/1/6
f 265/1/6 266/1/6 271/1/6
f 267/1/6 268/1/6 271/1/6
f 251/1/6 259/1/6 271/1/6
f 259/1/6 260/1/6 271/1/6
f 264/1/6 265/1/6 271/1/6
f 263/1/6 264/1/6 271/1/6
f 270/1/6 254/1/6 272/1/6
f 271/1/6 270/1/6 272/1/6
